<svg width="134" height="55" viewBox="0 0 134 55" fill="none" xmlns="http://www.w3.org/2000/svg">
<path d="M84.4834 24L83.5518 20.9414H78.8672L77.9355 24H75L79.5352 11.0977H82.8662L87.4189 24H84.4834ZM82.9014 18.6562C82.04 15.8848 81.5537 14.3174 81.4424 13.9541C81.3369 13.5908 81.2607 13.3037 81.2139 13.0928C81.0205 13.8428 80.4668 15.6973 79.5527 18.6562H82.9014ZM98.715 11.1504H101.466L97.0978 24H94.1271L89.7677 11.1504H92.5187L94.9357 18.7969C95.0705 19.248 95.2082 19.7754 95.3488 20.3789C95.4953 20.9766 95.5861 21.3926 95.6213 21.627C95.6857 21.0879 95.9054 20.1445 96.2804 18.7969L98.715 11.1504ZM110.389 24H107.664V13.418H104.175V11.1504H113.878V13.418H110.389V24ZM129.859 17.5576C129.859 19.6846 129.332 21.3193 128.277 22.4619C127.222 23.6045 125.71 24.1758 123.742 24.1758C121.773 24.1758 120.261 23.6045 119.207 22.4619C118.152 21.3193 117.624 19.6787 117.624 17.54C117.624 15.4014 118.152 13.7695 119.207 12.6445C120.267 11.5137 121.785 10.9482 123.759 10.9482C125.734 10.9482 127.243 11.5166 128.286 12.6533C129.334 13.79 129.859 15.4248 129.859 17.5576ZM120.481 17.5576C120.481 18.9932 120.753 20.0742 121.298 20.8008C121.843 21.5273 122.658 21.8906 123.742 21.8906C125.916 21.8906 127.002 20.4463 127.002 17.5576C127.002 14.6631 125.921 13.2158 123.759 13.2158C122.675 13.2158 121.858 13.582 121.307 14.3145C120.756 15.041 120.481 16.1221 120.481 17.5576Z" fill="#48494D"/>
<path d="M79.6396 45L76.7412 36.6533H76.6865C76.764 37.8929 76.8027 39.055 76.8027 40.1396V45H75.3193V35.0059H77.623L80.3984 42.9561H80.4395L83.2969 35.0059H85.6074V45H84.0352V40.0576C84.0352 39.5609 84.0465 38.9137 84.0693 38.1162C84.0967 37.3187 84.1195 36.8356 84.1377 36.667H84.083L81.082 45H79.6396ZM98.9323 39.9893C98.9323 41.6162 98.5244 42.8809 97.7087 43.7832C96.8975 44.6855 95.7468 45.1367 94.2565 45.1367C92.7481 45.1367 91.5882 44.6901 90.777 43.7969C89.9704 42.8991 89.5671 41.6253 89.5671 39.9756C89.5671 38.3258 89.9727 37.0589 90.7839 36.1748C91.5996 35.2907 92.7617 34.8486 94.2702 34.8486C95.7559 34.8486 96.9043 35.2975 97.7155 36.1953C98.5267 37.0931 98.9323 38.3577 98.9323 39.9893ZM91.3034 39.9893C91.3034 41.2197 91.5518 42.154 92.0485 42.792C92.5453 43.4255 93.2813 43.7422 94.2565 43.7422C95.2272 43.7422 95.9587 43.4277 96.4509 42.7988C96.9476 42.1699 97.196 41.2334 97.196 39.9893C97.196 38.7633 96.9499 37.8337 96.4577 37.2002C95.9701 36.5667 95.2409 36.25 94.2702 36.25C93.2904 36.25 92.5498 36.5667 92.0485 37.2002C91.5518 37.8337 91.3034 38.7633 91.3034 39.9893ZM106.351 45H104.717V36.4072H101.778V35.0059H109.29V36.4072H106.351V45ZM121.522 39.9893C121.522 41.6162 121.114 42.8809 120.298 43.7832C119.487 44.6855 118.336 45.1367 116.846 45.1367C115.337 45.1367 114.177 44.6901 113.366 43.7969C112.56 42.8991 112.156 41.6253 112.156 39.9756C112.156 38.3258 112.562 37.0589 113.373 36.1748C114.189 35.2907 115.351 34.8486 116.859 34.8486C118.345 34.8486 119.494 35.2975 120.305 36.1953C121.116 37.0931 121.522 38.3577 121.522 39.9893ZM113.893 39.9893C113.893 41.2197 114.141 42.154 114.638 42.792C115.134 43.4255 115.87 43.7422 116.846 43.7422C117.816 43.7422 118.548 43.4277 119.04 42.7988C119.537 42.1699 119.785 41.2334 119.785 39.9893C119.785 38.7633 119.539 37.8337 119.047 37.2002C118.559 36.5667 117.83 36.25 116.859 36.25C115.88 36.25 115.139 36.5667 114.638 37.2002C114.141 37.8337 113.893 38.7633 113.893 39.9893Z" fill="#48494D"/>
<path d="M42.1547 27.2688L35.3713 26.7188C34.3621 26.6373 33.6095 25.7535 33.691 24.7443C33.7295 24.2621 33.9578 23.8147 34.3254 23.4995L39.4899 19.0692C37.6189 16.4071 34.9184 14.4409 31.8109 13.4775L29.1902 19.7659C28.8005 20.7009 27.7272 21.1419 26.7922 20.7523C26.3457 20.5662 25.991 20.2114 25.8058 19.7659L23.1915 13.4831C20.084 14.4466 17.3835 16.4128 15.5126 19.0748L20.6771 23.505C21.4461 24.1641 21.5351 25.321 20.876 26.09C20.5608 26.4576 20.1133 26.685 19.6312 26.7244L12.8479 27.2744C12.8479 27.3523 12.8359 27.4275 12.8359 27.5053C12.8341 30.6816 13.8708 33.7717 15.7876 36.3053L21.591 32.7651C22.4555 32.238 23.5838 32.5112 24.1109 33.3756C24.3631 33.7891 24.4409 34.2849 24.3291 34.7552L22.7543 41.3736C25.8297 42.4415 29.1756 42.4415 32.2509 41.3736L30.6761 34.7552C30.4414 33.7707 31.0492 32.7817 32.0346 32.547C32.5049 32.4351 33.0007 32.513 33.4142 32.7651L39.2149 36.2999C41.1316 33.7662 42.1683 30.6761 42.1665 27.4999C42.1666 27.4219 42.1565 27.3467 42.1547 27.2688ZM27.5 30.2497C25.981 30.2497 24.75 29.0187 24.75 27.4997C24.75 25.9808 25.981 24.7497 27.5 24.7497C29.0189 24.7497 30.25 25.9808 30.25 27.4997C30.25 29.0187 29.0189 30.2497 27.5 30.2497Z" fill="#D12136"/>
<path d="M27.5 0.916992C12.8186 0.916992 0.916626 12.819 0.916626 27.5004C0.916626 42.1817 12.8186 54.0837 27.5 54.0837C42.1813 54.0837 54.0834 42.1817 54.0834 27.5004C54.0834 12.819 42.1813 0.916992 27.5 0.916992ZM27.5 42.167C19.3994 42.167 12.8334 35.6009 12.8334 27.5004C12.8334 19.3998 19.3994 12.8337 27.5 12.8337C35.6006 12.8337 42.1666 19.3998 42.1666 27.5004C42.1666 35.6009 35.6006 42.167 27.5 42.167Z" fill="#2B2733"/>
<path d="M44.8673 7.38281C54.462 18.49 53.2374 35.2724 42.13 44.8671C32.1512 53.4874 17.3617 53.4874 7.38281 44.8671C16.973 55.979 33.7553 57.2128 44.8671 47.6218C55.979 38.0307 57.2128 21.2493 47.6218 10.1374C46.7721 9.15291 45.8517 8.23263 44.8673 7.38281Z" fill="#1A1721"/>
<path d="M19.2634 5.11534L21.0071 4.54883L20.1573 1.9332L18.4136 2.49971L19.2634 5.11534Z" fill="#555160"/>
<path d="M34.8445 53.0626L36.5883 52.4961L35.7385 49.8805L33.9948 50.447L34.8445 53.0626Z" fill="#3B3944"/>
<path d="M28.4167 0.916992H26.5834V3.66699H28.4167V0.916992Z" fill="#555160"/>
<path d="M28.4167 51.333H26.5834V54.083H28.4167V51.333Z" fill="#3B3944"/>
<path d="M12.7497 8.75746L14.2327 7.67969L12.616 5.4553L11.1331 6.53307L12.7497 8.75746Z" fill="#555160"/>
<path d="M42.3819 49.5446L43.8649 48.4668L42.2482 46.2424L40.7653 47.3202L42.3819 49.5446Z" fill="#3B3944"/>
<path d="M7.67906 14.2329L8.75684 12.75L6.53245 11.1333L5.45467 12.6163L7.67906 14.2329Z" fill="#555160"/>
<path d="M48.4681 43.8667L49.5459 42.3838L47.3215 40.7671L46.2437 42.2501L48.4681 43.8667Z" fill="#3B3944"/>
<path d="M4.54848 21.0074L5.11499 19.2637L2.49936 18.4139L1.93285 20.1576L4.54848 21.0074Z" fill="#555160"/>
<path d="M52.4999 36.5914L53.0664 34.8477L50.4508 33.9979L49.8843 35.7416L52.4999 36.5914Z" fill="#3B3944"/>
<path d="M3.66663 26.583H0.916626V28.4164H3.66663V26.583Z" fill="#555160"/>
<path d="M54.0834 26.583H51.3334V28.4164H54.0834V26.583Z" fill="#3B3944"/>
<path d="M2.5046 36.5853L5.11975 35.7354L4.55309 33.9919L1.93794 34.8419L2.5046 36.5853Z" fill="#555160"/>
<path d="M6.53001 43.8645L8.75476 42.248L7.67711 40.7648L5.45236 42.3813L6.53001 43.8645Z" fill="#555160"/>
<path d="M42.2492 8.75698L43.8656 6.53223L42.3824 5.45457L40.766 7.67932L42.2492 8.75698Z" fill="#555160"/>
<path d="M35.7394 5.11515L36.5894 2.5L34.8459 1.93334L33.9959 4.54849L35.7394 5.11515Z" fill="#555160"/>
<path d="M53.0659 20.1576L52.4985 18.416L50.7019 19C50.8348 19.5995 50.9504 20.2045 51.042 20.8178L53.0659 20.1576Z" fill="#3B3944"/>
<path d="M49.545 12.616L48.4678 11.1328L47.8427 11.5912C48.1479 12.1256 48.4422 12.6683 48.7107 13.2265L49.545 12.616Z" fill="#3B3944"/>
<path d="M11.1329 48.4679L12.6161 49.545L13.2229 48.7108C12.6647 48.4423 12.1229 48.1481 11.5877 47.8428L11.1329 48.4679Z" fill="#3B3944"/>
<path d="M18.4131 52.4979L20.1547 53.0653L20.8119 51.0413C20.1987 50.9496 19.5937 50.8341 18.9941 50.7012L18.4131 52.4979Z" fill="#3B3944"/>
<path d="M50.4506 21.0074L51.0418 20.8149C50.9502 20.2016 50.8346 19.5966 50.7017 18.9971L49.8832 19.2629L50.4506 21.0074Z" fill="#555160"/>
<path d="M47.321 14.2335L48.7107 13.2251C48.4422 12.6669 48.148 12.1251 47.8427 11.5898L46.243 12.7522L47.321 14.2335Z" fill="#555160"/>
<path d="M12.75 46.2432L11.5876 47.8428C12.1221 48.1481 12.6648 48.4423 13.2229 48.7109L14.2313 47.3211L12.75 46.2432Z" fill="#555160"/>
<path d="M19.2628 49.8828L18.9969 50.7014C19.5965 50.8342 20.2015 50.9498 20.8147 51.0415L21.0072 50.4502L19.2628 49.8828Z" fill="#555160"/>
<path d="M27.5 8.25C16.8685 8.25 8.25 16.8685 8.25 27.5C8.25 38.1315 16.8685 46.75 27.5 46.75C38.1315 46.75 46.75 38.1315 46.75 27.5C46.75 16.8685 38.1315 8.25 27.5 8.25ZM27.5 42.1666C19.3994 42.1666 12.8334 35.6006 12.8334 27.5C12.8334 19.3994 19.3994 12.8334 27.5 12.8334C35.6006 12.8334 42.1666 19.3994 42.1666 27.5C42.1666 35.6006 35.6006 42.1666 27.5 42.1666Z" fill="#555160"/>
<path d="M40.6313 13.4512C47.8941 21.1989 47.5017 33.3676 39.7541 40.6313C32.3575 47.5649 20.8488 47.5649 13.4521 40.6313C20.6938 48.4 32.8625 48.8272 40.6322 41.5855C48.402 34.3438 48.8282 22.1751 41.5865 14.4054C41.2794 14.0764 40.9603 13.7583 40.6313 13.4512Z" fill="#3B3944"/>
<path d="M35.8417 15.4579C34.607 14.5963 33.2466 13.9298 31.8083 13.4834L31.3032 14.6944C32.8405 14.7749 34.3631 15.0307 35.8417 15.4579Z" fill="#9C1928"/>
<path d="M24.0827 15.6312L23.1918 13.4834C20.0843 14.4469 17.3838 16.4131 15.5128 19.075L16.5918 20.0009C18.7422 18.0174 21.2978 16.5268 24.0827 15.6312Z" fill="#9C1928"/>
<path d="M27.5 7.33301C16.3625 7.33301 7.33337 16.3621 7.33337 27.4996C7.33337 38.6371 16.3625 47.6663 27.5 47.6663C38.6375 47.6663 47.6666 38.6371 47.6666 27.4996C47.6539 16.3668 38.6329 7.34579 27.5 7.33301ZM27.5 45.833C17.3745 45.833 9.16664 37.6251 9.16664 27.4996C9.16664 17.3742 17.3745 9.16627 27.5 9.16627C37.6255 9.16627 45.8334 17.3742 45.8334 27.4996C45.8214 37.6196 37.62 45.8211 27.5 45.833Z" fill="black"/>
<path d="M27.5 11.917C18.8935 11.917 11.9166 18.8937 11.9166 27.5004C11.9166 36.107 18.8935 43.0837 27.5 43.0837C36.1065 43.0837 43.0834 36.1069 43.0834 27.5004C43.0741 18.8975 36.1029 11.9262 27.5 11.917ZM41.1877 26.272L35.4466 25.8081C34.9425 25.7659 34.5676 25.3223 34.6097 24.8181C34.6299 24.5789 34.7426 24.3571 34.925 24.2004L39.2874 20.4576C40.3535 22.2268 41.0025 24.2151 41.1877 26.272ZM30.5608 14.106L28.3461 19.4227C28.1508 19.8902 27.6145 20.1111 27.147 19.9158C26.9242 19.8232 26.7464 19.6455 26.6538 19.4227L24.4391 14.106C26.4522 13.6321 28.5478 13.6321 30.5608 14.106ZM15.7108 20.4557L20.075 24.2004C20.459 24.5294 20.504 25.1088 20.174 25.4929C20.0163 25.6762 19.7927 25.7907 19.5525 25.8101L13.8114 26.2739C13.9966 24.2151 14.6465 22.2259 15.7136 20.4559H15.7108V20.4557ZM17.1563 36.5331L22.0623 33.5403C22.494 33.2762 23.0587 33.4129 23.3227 33.8446C23.4492 34.0508 23.4887 34.2993 23.4317 34.5349L22.1008 40.1431C20.2042 39.3245 18.5157 38.0907 17.159 36.5333H17.1563V36.5331ZM23.8397 40.7416L25.2147 34.9593C25.5658 33.4816 24.6528 31.9994 23.1751 31.6474C22.4692 31.4796 21.7259 31.597 21.1071 31.9756L16.0343 35.0721C14.6648 33.0005 13.8857 30.5951 13.7811 28.1136L19.701 27.6352C21.2144 27.5114 22.341 26.1832 22.2172 24.6698C22.1576 23.9484 21.8166 23.2792 21.2666 22.8071L16.7566 18.9387C18.3067 17 20.3509 15.515 22.6737 14.6405L24.9581 20.1249C25.542 21.5274 27.1516 22.1902 28.5541 21.6062C29.2242 21.3276 29.7568 20.795 30.0355 20.1249L32.3208 14.6405C34.6436 15.515 36.6878 17 38.2379 18.9387L33.7334 22.8071C32.5812 23.7961 32.4482 25.5324 33.4373 26.6846C33.9094 27.2346 34.5795 27.5765 35.3018 27.6352L41.2216 28.1136C41.1171 30.5951 40.338 33.0004 38.9685 35.0721L33.8892 31.9747C32.5931 31.1836 30.9 31.5934 30.109 32.8895C29.7313 33.5092 29.613 34.2526 29.7817 34.9593L31.1567 40.7416C28.7652 41.42 26.2333 41.42 23.8417 40.7416H23.8397ZM32.8964 40.1431L31.5627 34.5349C31.4454 34.0427 31.7497 33.5485 32.2419 33.4312C32.4775 33.3753 32.725 33.4147 32.9322 33.5403L37.8382 36.5331C36.4824 38.0906 34.7948 39.3244 32.8991 40.143H32.8964V40.1431Z" fill="black"/>
<path d="M31.1666 27.4996C31.1666 25.4747 29.5249 23.833 27.5 23.833C25.4751 23.833 23.8334 25.4747 23.8334 27.4996C23.8334 29.5245 25.4751 31.1663 27.5 31.1663C29.5249 31.1663 31.1666 29.5245 31.1666 27.4996ZM27.5 29.333C26.4871 29.333 25.6666 28.5126 25.6666 27.4996C25.6666 26.4868 26.487 25.6663 27.5 25.6663C28.5129 25.6663 29.3334 26.4866 29.3334 27.4996C29.3334 28.5125 28.5129 29.333 27.5 29.333Z" fill="black"/>
<path d="M27.5 55C12.3117 55 0 42.6883 0 27.5C0 12.3117 12.3117 0 27.5 0C42.6883 0 55 12.3117 55 27.5C54.9826 42.681 42.681 54.9826 27.5 55ZM27.5 1.83337C13.3247 1.83337 1.83337 13.3247 1.83337 27.5C1.83337 41.6753 13.3247 53.1666 27.5 53.1666C41.6753 53.1666 53.1666 41.6754 53.1666 27.5C53.1502 13.3311 41.6689 1.8498 27.5 1.83337Z" fill="black"/>
</svg>
